<svg xmlns="http://www.w3.org/2000/svg" width="24" height="24" fill="currentColor" viewBox="0 0 16 16">
    <path d="M12 7.5A4.5 4.5 0 1 1 7.5 3a4.5 4.5 0 0 1 4.5 4.5zM8 1a.5.5 0 0 1 .5-.5h.535a.5.5 0 0 1 .47.67L8.03 3.9a.5.5 0 1 1-.96-.4L7.48 1zM1 7.5a.5.5 0 0 1 .5-.5h2.37a.5.5 0 0 1 0 1H1.5a.5.5 0 0 1-.5-.5zM8 11a.5.5 0 0 1 .5.5v2.37a.5.5 0 0 1-1 0V11.5A.5.5 0 0 1 8 11zm5.5-.5a.5.5 0 0 1 .5.5v.535a.5.5 0 0 1-.67.47L12.1 11.96a.5.5 0 1 1 .4-.96l1.5.064zM8 8.5A3.5 3.5 0 1 0 8 1a3.5 3.5 0 0 0 0 7z"/>
</svg>
